<?xml version="1.0" encoding="UTF-8"?>
<svg width="48" height="48" viewBox="0 0 48 48" fill="none" xmlns="http://www.w3.org/2000/svg">
    <path d="M8 18C6.9 18 6 18.9 6 20V32C6 33.1 6.9 34 8 34C9.1 34 10 33.1 10 32V20C10 18.9 9.1 18 8 18ZM40 18C38.9 18 38 18.9 38 20V32C38 33.1 38.9 34 40 34C41.1 34 42 33.1 42 32V20C42 18.9 41.1 18 40 18Z" fill="#2C9678"/>
    <path d="M12 34C12 35.1 12.9 36 14 36H16V42C16 43.1 16.9 44 18 44C19.1 44 20 43.1 20 42V36H28V42C28 43.1 28.9 44 30 44C31.1 44 32 43.1 32 42V36H34C35.1 36 36 35.1 36 34V18H12V34Z" fill="#2C9678"/>
    <path d="M31.1 8.3L33.8 4.2C34.1 3.7 33.9 3.1 33.4 2.8C32.9 2.5 32.3 2.7 32 3.2L29.2 7.4C27.6 6.5 25.8 6 24 6C22.2 6 20.4 6.5 18.8 7.4L16 3.2C15.7 2.7 15.1 2.5 14.6 2.8C14.1 3.1 13.9 3.7 14.2 4.2L16.9 8.3C14.1 10.1 12.1 13.2 12 16.8H36C35.9 13.2 33.9 10.1 31.1 8.3ZM20 13H18V11H20V13ZM30 13H28V11H30V13Z" fill="#2C9678"/>
</svg> 