<?xml version="1.0" encoding="UTF-8"?>
<svg width="48" height="48" viewBox="0 0 48 48" fill="none" xmlns="http://www.w3.org/2000/svg">
    <path d="M37.2324 25.7437C37.1809 19.7437 42.1809 17.0937 42.3867 16.9922C39.8867 13.2422 35.9453 12.7922 34.5938 12.7437C31.2438 12.3937 28.0438 14.7437 26.3438 14.7437C24.5938 14.7437 21.9453 12.7922 19.0938 12.8437C15.3438 12.8937 11.8438 14.9922 9.99376 18.2922C6.14376 25.0437 8.99376 34.7437 12.6938 39.9922C14.5438 42.5437 16.6938 45.3937 19.5438 45.2922C22.2938 45.1922 23.3438 43.5437 26.5938 43.5437C29.8438 43.5437 30.7938 45.2922 33.6938 45.2437C36.6938 45.1922 38.5938 42.6437 40.3938 40.0922C42.4938 37.1922 43.3438 34.3437 43.3938 34.1922C43.2938 34.1437 37.2938 31.8437 37.2324 25.7437Z" fill="#2C9678"/>
    <path d="M32.6829 9.29219C34.1829 7.44219 35.2329 4.89219 34.9329 2.29219C32.6829 2.39219 29.8829 3.79219 28.3329 5.59219C26.9329 7.19219 25.6829 9.84219 26.0329 12.3422C28.5329 12.5422 31.1329 11.1422 32.6829 9.29219Z" fill="#2C9678"/>
</svg> 