<?xml version="1.0" encoding="UTF-8"?>
<svg width="24" height="24" viewBox="0 0 24 24" fill="none" xmlns="http://www.w3.org/2000/svg">
    <path d="M12.5037 2C11.5409 2 10.7183 2.38362 10.0683 3.13362C9.41827 3.88362 9.09327 4.82533 9.09327 5.94533C9.09327 6.52533 9.19327 7.07438 9.39327 7.58438C9.59327 8.09438 9.87583 8.53531 10.2433 8.89531C10.1033 9.13531 9.94922 9.44808 9.79922 9.83008C9.64922 10.2121 9.52327 10.6334 9.44727 11.0834C9.27127 11.0434 9.09866 11.0225 8.92266 11.0225C8.58266 11.0225 8.27435 11.0947 7.99235 11.2387C7.71035 11.3827 7.46799 11.5791 7.24999 11.8291C7.03199 12.0791 6.81005 12.4068 6.58005 12.8008C6.35005 13.1948 6.14458 13.5897 5.96458 13.9697C5.78458 14.3497 5.62617 14.7489 5.48617 15.1589C5.34617 15.5689 5.27734 15.9264 5.27734 16.2344C5.27734 16.7444 5.43575 17.1889 5.75977 17.5449C6.08379 17.9009 6.5337 18.0791 7.1377 18.0791C7.4577 18.0791 7.77435 18.0147 8.09235 17.8887C8.41035 17.7627 8.70367 17.6147 8.97266 17.4277C9.24166 17.2407 9.48935 17.0489 9.71735 16.8379C9.94535 16.6269 10.1337 16.4502 10.2837 16.3242L10.7212 17.6367C10.8212 17.9047 10.9405 18.1489 11.0645 18.3789C11.1885 18.6089 11.3337 18.8068 11.4837 18.9688C11.6337 19.1308 11.8041 19.2577 11.9941 19.3477C12.1841 19.4377 12.4037 19.4844 12.6387 19.4844C12.9187 19.4844 13.1636 19.4297 13.3496 19.3477C13.5356 19.2657 13.6995 19.1466 13.8145 18.9766C13.9295 18.8066 14.0239 18.6068 14.0879 18.3848C14.1519 18.1628 14.2037 17.9127 14.2637 17.6367L14.7012 16.3242C14.8512 16.4502 15.0395 16.6269 15.2676 16.8379C15.4956 17.0489 15.7433 17.2407 16.0123 17.4277C16.2813 17.6147 16.5746 17.7627 16.8926 17.8887C17.2106 18.0147 17.5272 18.0791 17.8472 18.0791C18.4512 18.0791 18.9011 17.9009 19.2251 17.5449C19.5491 17.1889 19.7075 16.7444 19.7075 16.2344C19.7075 15.9264 19.6387 15.5689 19.4987 15.1589C19.3587 14.7489 19.2003 14.3497 19.0203 13.9697C18.8403 13.5897 18.6348 13.1948 18.4048 12.8008C18.1748 12.4068 17.9529 12.0791 17.7349 11.8291C17.5169 11.5791 17.2745 11.3827 16.9925 11.2387C16.7105 11.0947 16.4022 11.0225 16.0622 11.0225C15.8862 11.0225 15.7136 11.0434 15.5376 11.0834C15.4616 10.6334 15.3357 10.2121 15.1857 9.83008C15.0357 9.44808 14.8816 9.13531 14.7416 8.89531C15.1091 8.53531 15.3917 8.09438 15.5917 7.58438C15.7917 7.07438 15.8917 6.52533 15.8917 5.94533C15.8917 4.82533 15.5667 3.88362 14.9167 3.13362C14.2667 2.38362 13.4441 2 12.4813 2H12.5037ZM12.5037 3.19922C13.1037 3.19922 13.5995 3.46047 13.9795 3.98047C14.3595 4.50047 14.5488 5.15922 14.5488 5.94922C14.5488 6.39922 14.4836 6.81922 14.3496 7.19922C14.2156 7.57922 14.0337 7.90516 13.8037 8.16016C13.5737 8.41516 13.3075 8.60516 13.0195 8.72266C12.7315 8.84016 12.4441 8.90039 12.1641 8.90039C11.8841 8.90039 11.5967 8.84016 11.3087 8.72266C11.0207 8.60516 10.7545 8.41516 10.5245 8.16016C10.2945 7.90516 10.1126 7.57922 9.97856 7.19922C9.84456 6.81922 9.77929 6.39922 9.77929 5.94922C9.77929 5.15922 9.96862 4.50047 10.3486 3.98047C10.7286 3.46047 11.2244 3.19922 11.8244 3.19922H12.5037ZM12.1641 10.0996C12.4441 10.0996 12.7315 10.1598 13.0195 10.2773C13.3075 10.3948 13.5737 10.5848 13.8037 10.8398C14.0337 11.0948 14.2156 11.4208 14.3496 11.8008C14.4836 12.1808 14.5488 12.6008 14.5488 13.0508C14.5488 13.8408 14.3595 14.4995 13.9795 15.0195C13.5995 15.5395 13.1037 15.8008 12.5037 15.8008C11.9037 15.8008 11.4079 15.5395 11.0279 15.0195C10.6479 14.4995 10.4585 13.8408 10.4585 13.0508C10.4585 12.6008 10.5238 12.1808 10.6578 11.8008C10.7918 11.4208 10.9737 11.0948 11.2037 10.8398C11.4337 10.5848 11.6999 10.3948 11.9879 10.2773C12.2759 10.1598 12.5633 10.0996 12.8433 10.0996H12.1641Z" fill="#2C9678"/>
</svg> 