<?xml version="1.0" encoding="UTF-8"?>
<svg width="64" height="64" viewBox="0 0 64 64" fill="none" xmlns="http://www.w3.org/2000/svg">
    <rect x="12" y="8" width="40" height="48" rx="8" fill="#2C9678" fill-opacity="0.1"/>
    <path d="M32 16C25.3726 16 20 21.3726 20 28C20 35.732 30.892 46.464 31.36 46.92C31.552 47.108 31.776 47.2 32 47.2C32.224 47.2 32.448 47.108 32.64 46.92C33.108 46.464 44 35.732 44 28C44 21.3726 38.6274 16 32 16ZM32 32C29.7908 32 28 30.2092 28 28C28 25.7908 29.7908 24 32 24C34.2092 24 36 25.7908 36 28C36 30.2092 34.2092 32 32 32Z" fill="#2C9678"/>
</svg> 