<?xml version="1.0" encoding="UTF-8"?>
<svg width="24" height="24" viewBox="0 0 24 24" fill="none" xmlns="http://www.w3.org/2000/svg">
    <path d="M18.7101 18.93C17.8801 20.39 17.0001 21.82 15.6501 21.82C14.3001 21.82 13.8001 20.87 12.2401 20.87C10.6801 20.87 10.1301 21.79 8.84008 21.79C7.55008 21.79 6.60008 20.25 5.77008 18.79C4.94008 17.33 4.32008 14.91 4.32008 12.59C4.32008 8.18 7.10008 5.86 9.83008 5.86C11.1501 5.86 12.2101 6.87 13.0001 6.87C13.7901 6.87 15.0101 5.79 16.5201 5.79C17.3001 5.79 19.4501 5.97 20.8901 8.09C20.8101 8.14 18.1001 9.65 18.1001 12.67C18.1001 16.23 21.4501 17.5 21.5001 17.52C21.4501 17.63 20.9901 19.32 19.4501 21.05C18.1001 22.57 16.8001 22.57 16.5201 22.52C15.1701 22.42 14.1201 21.37 12.2901 21.37C10.5101 21.37 9.32008 22.42 8.06008 22.42M15.4501 3.11C16.3501 2.05 16.9501 0.57 16.7901 -0.900024C15.4901 -0.810024 13.9201 0.0199756 12.9701 1.0799C12.0201 2.1399 11.3701 3.6499 11.5601 5.0799C13.0001 5.2399 14.5501 4.1699 15.4501 3.1099" fill="#2C9678"/>
</svg> 