<?xml version="1.0" encoding="UTF-8"?>
<svg width="64" height="64" viewBox="0 0 64 64" fill="none" xmlns="http://www.w3.org/2000/svg">
    <circle cx="32" cy="32" r="24" fill="#2C9678" fill-opacity="0.1"/>
    <path d="M42.2929 39.2929L36.2322 33.2322C37.3284 31.8408 38 30.0947 38 28.1716C38 23.6726 34.4274 20.1 29.9284 20.1C25.4294 20.1 21.8568 23.6726 21.8568 28.1716C21.8568 32.6706 25.4294 36.2432 29.9284 36.2432C31.8515 36.2432 33.5976 35.5716 34.989 34.4754L41.0497 40.5361C41.2447 40.7311 41.4988 40.8286 41.7713 40.8286C42.0438 40.8286 42.2979 40.7311 42.4929 40.5361C42.8829 40.1461 42.8829 39.6829 42.2929 39.2929ZM29.9284 33.9137C26.7147 33.9137 24.1863 31.3853 24.1863 28.1716C24.1863 24.9579 26.7147 22.4295 29.9284 22.4295C33.1421 22.4295 35.6705 24.9579 35.6705 28.1716C35.6705 31.3853 33.1421 33.9137 29.9284 33.9137Z" fill="#2C9678"/>
</svg> 