<?xml version="1.0" encoding="UTF-8"?>
<svg width="64" height="64" viewBox="0 0 64 64" fill="none" xmlns="http://www.w3.org/2000/svg">
    <circle cx="32" cy="32" r="24" fill="#2C9678" fill-opacity="0.1"/>
    <path d="M40 24H36V20L32 24L36 28V24H40C42.2092 24 44 25.7908 44 28C44 30.2092 42.2092 32 40 32H36V36H40C44.4182 36 48 32.4182 48 28C48 23.5818 44.4182 20 40 20H36V24Z" fill="#2C9678"/>
    <path d="M24 40H28V44L32 40L28 36V40H24C21.7908 40 20 38.2092 20 36C20 33.7908 21.7908 32 24 32H28V28H24C19.5818 28 16 31.5818 16 36C16 40.4182 19.5818 44 24 44H28V40Z" fill="#2C9678"/>
</svg> 