<?xml version="1.0" encoding="UTF-8"?>
<svg width="64" height="64" viewBox="0 0 64 64" fill="none" xmlns="http://www.w3.org/2000/svg">
    <rect x="12" y="12" width="40" height="40" rx="8" fill="#2C9678" fill-opacity="0.1"/>
    <path d="M44.5858 26.5858L33.4142 15.4142C33.1488 15.1488 32.7766 15 32.3858 15H20C18.8954 15 18 15.8954 18 17V29.3858C18 29.7766 18.1488 30.1488 18.4142 30.4142L29.5858 41.5858C30.3668 42.3668 31.6332 42.3668 32.4142 41.5858L44.5858 29.4142C45.3668 28.6332 45.3668 27.3668 44.5858 26.5858ZM24 25C22.8954 25 22 24.1046 22 23C22 21.8954 22.8954 21 24 21C25.1046 21 26 21.8954 26 23C26 24.1046 25.1046 25 24 25Z" fill="#2C9678"/>
</svg> 