<?xml version="1.0" encoding="UTF-8"?>
<svg width="300" height="200" viewBox="0 0 300 200" fill="none" xmlns="http://www.w3.org/2000/svg">
    <!-- Background -->
    <rect width="300" height="200" rx="16" fill="#F5F4F7"/>
    
    <!-- Devices -->
    <rect x="40" y="60" width="100" height="80" rx="8" fill="white" stroke="#2C9678" stroke-width="2"/>
    <rect x="160" y="60" width="100" height="80" rx="8" fill="white" stroke="#2C9678" stroke-width="2"/>
    
    <!-- Screen Content -->
    <rect x="50" y="70" width="80" height="4" rx="2" fill="#2C9678"/>
    <rect x="50" y="80" width="60" height="4" rx="2" fill="#2C9678" fill-opacity="0.6"/>
    <rect x="50" y="90" width="70" height="4" rx="2" fill="#2C9678" fill-opacity="0.6"/>
    
    <rect x="170" y="70" width="80" height="4" rx="2" fill="#2C9678"/>
    <rect x="170" y="80" width="60" height="4" rx="2" fill="#2C9678" fill-opacity="0.6"/>
    <rect x="170" y="90" width="70" height="4" rx="2" fill="#2C9678" fill-opacity="0.6"/>
    
    <!-- Sync Arrows -->
    <path d="M140 80H160M150 70L160 80L150 90" stroke="#2C9678" stroke-width="2"/>
    <path d="M160 120H140M150 110L140 120L150 130" stroke="#2C9678" stroke-width="2"/>
</svg> 